<?xml version="1.0" encoding="UTF-8"?>
<svg version="1.1" xmlns="http://www.w3.org/2000/svg" width="500" height="500">
<path d="M0 0 C0.55526367 0.38833008 1.11052734 0.77666016 1.68261719 1.17675781 C5.28731357 3.70374141 8.86496071 6.26555423 12.42431641 8.85595703 C13.83337813 9.8790223 15.25017551 10.89141358 16.66796875 11.90234375 C17.76044922 12.69318359 17.76044922 12.69318359 18.875 13.5 C19.49117188 13.9434375 20.10734375 14.386875 20.7421875 14.84375 C21.15726562 15.2253125 21.57234375 15.606875 22 16 C22 16.66 22 17.32 22 18 C22.57975586 18.25523438 23.15951172 18.51046875 23.75683594 18.7734375 C26.23015312 20.12584777 27.89602109 21.63732524 29.890625 23.625 C30.95410156 24.68460938 30.95410156 24.68460938 32.0390625 25.765625 C33.13347656 26.87164062 33.13347656 26.87164062 34.25 28 C34.99507813 28.73734375 35.74015625 29.4746875 36.5078125 30.234375 C37.21164062 30.94078125 37.91546875 31.6471875 38.640625 32.375 C39.28547852 33.02210937 39.93033203 33.66921875 40.59472656 34.3359375 C42 36 42 36 42 38 C42.66 38 43.32 38 44 38 C45.2265625 39.36328125 45.2265625 39.36328125 46.625 41.3125 C47.15738281 42.04984375 47.68976563 42.7871875 48.23828125 43.546875 C49.11033203 44.76117188 49.11033203 44.76117188 50 46 C50.61230469 46.80953125 51.22460938 47.6190625 51.85546875 48.453125 C59.64635533 58.84097377 66.7209385 70.11381122 72 82 C72.26522461 82.58458984 72.53044922 83.16917969 72.80371094 83.77148438 C78.74802496 97.09151915 81.49858104 110.68790404 84 125 C84.31132536 126.69032094 84.62373467 128.38044278 84.9375 130.0703125 C94.13342094 180.7144376 87.58561818 238.47716585 57.875 281.42578125 C55.51999513 284.65900668 53.09888103 287.82862602 50.6015625 290.953125 C49.04604772 292.94114877 47.61223262 294.97955757 46.1875 297.0625 C45.1046875 298.5165625 45.1046875 298.5165625 44 300 C43.34 300 42.68 300 42 300 C41.61714844 300.86963379 41.61714844 300.86963379 41.2265625 301.75683594 C39.87415223 304.23015312 38.36267476 305.89602109 36.375 307.890625 C35.66859375 308.59960938 34.9621875 309.30859375 34.234375 310.0390625 C33.49703125 310.76867187 32.7596875 311.49828125 32 312.25 C31.26265625 312.99507813 30.5253125 313.74015625 29.765625 314.5078125 C29.05921875 315.21164062 28.3528125 315.91546875 27.625 316.640625 C26.97789062 317.28547852 26.33078125 317.93033203 25.6640625 318.59472656 C24 320 24 320 22 320 C22 320.66 22 321.32 22 322 C20.63671875 323.2265625 20.63671875 323.2265625 18.6875 324.625 C17.95015625 325.15738281 17.2128125 325.68976563 16.453125 326.23828125 C15.64359375 326.81964844 14.8340625 327.40101563 14 328 C13.19046875 328.61230469 12.3809375 329.22460938 11.546875 329.85546875 C-10.59593108 346.46257331 -36.14149221 358.45355017 -63 365 C-63.68449219 365.16806152 -64.36898437 365.33612305 -65.07421875 365.50927734 C-67.37571876 366.0484949 -69.68287191 366.53246316 -72 367 C-72.86955322 367.18361084 -73.73910645 367.36722168 -74.63500977 367.55639648 C-84.79442644 369.4258631 -94.97988311 369.37220251 -105.2800293 369.37060547 C-108.40014541 369.37494801 -111.51880749 369.41128278 -114.63867188 369.44921875 C-152.89054189 369.66401077 -189.27288916 356.85889941 -221 335.9375 C-221.86020752 335.37216553 -222.72041504 334.80683105 -223.60668945 334.22436523 C-229.51007128 330.24623561 -234.75823503 325.80436159 -240 321 C-241.2665924 319.91171136 -242.53675942 318.8275502 -243.8125 317.75 C-247.50258469 314.52398275 -251.01259341 311.12940312 -254.5 307.6875 C-255.31174683 306.89520996 -255.31174683 306.89520996 -256.13989258 306.08691406 C-257.46653647 304.76347411 -258.73843655 303.38561719 -260 302 C-260 301.34 -260 300.68 -260 300 C-260.66 300 -261.32 300 -262 300 C-263.48046875 298.3828125 -263.48046875 298.3828125 -265.1875 296.125 C-265.80753906 295.30515625 -266.42757812 294.4853125 -267.06640625 293.640625 C-269.55659257 290.23988571 -271.98583877 286.80171261 -274.37890625 283.33203125 C-275.73770606 281.37732405 -277.13815768 279.46920745 -278.5625 277.5625 C-293.27125722 256.91274638 -302.03795008 230.65206753 -307 206 C-307.18425537 205.12843262 -307.36851074 204.25686523 -307.55834961 203.35888672 C-309.42213123 193.24739319 -309.33741617 183.12366824 -309.31567383 172.87255859 C-309.31252048 169.77014776 -309.33602033 166.66869945 -309.36132812 163.56640625 C-309.39890891 151.6888642 -308.5307959 140.600761 -306 129 C-305.6896193 127.3573515 -305.38169797 125.71423273 -305.078125 124.0703125 C-299.17137828 95.08546726 -285.32668776 66.40599231 -266 44 C-265.35417969 43.17371094 -264.70835937 42.34742187 -264.04296875 41.49609375 C-254.80435672 29.72071998 -244.04860382 18.8925445 -232 10 C-231.16597656 9.360625 -230.33195312 8.72125 -229.47265625 8.0625 C-164.53510855 -40.75985598 -67.82867719 -47.65805016 0 0 Z " fill="#39C267" transform="translate(359,81)"/>
<path d="M0 0 C0.63953613 0.26802933 1.27907227 0.53605865 1.93798828 0.81221008 C9.41780626 3.99553355 16.71155388 7.57379253 24 11.16796875 C25.45249073 11.87904899 26.90529491 12.58948927 28.35839844 13.29931641 C30.53735926 14.36378579 32.71615446 15.42857486 34.89398193 16.49536133 C40.99583923 19.4841269 47.11786901 22.42931707 53.25 25.35546875 C54.60121948 26.0038269 54.60121948 26.0038269 55.97973633 26.6652832 C60.6129325 28.88460907 65.26077575 31.0644675 69.93359375 33.19921875 C70.89942383 33.64539551 71.86525391 34.09157227 72.86035156 34.55126953 C74.68676849 35.39381869 76.5178922 36.22627186 78.35449219 37.04638672 C83.00688155 39.20333671 86.21932456 40.9756278 89 45.48046875 C90.07571002 48.7075988 90.13331404 51.05482229 90.14526367 54.44897461 C90.15164352 55.67712387 90.15802338 56.90527313 90.16459656 58.17063904 C90.16612522 59.51219646 90.16723919 60.85375441 90.16796875 62.1953125 C90.1711824 63.57149795 90.17454655 64.94768306 90.17805481 66.3238678 C90.18404141 69.20802604 90.18589517 72.09215434 90.18530273 74.97631836 C90.18520109 78.66962187 90.19885719 82.36273321 90.21607494 86.05599117 C90.22719999 88.89816671 90.22922179 91.74029584 90.22869301 94.58249092 C90.22987221 95.94403305 90.23429067 97.30557642 90.24202538 98.66709709 C90.25183561 100.57222895 90.24768029 102.47741719 90.24291992 104.38256836 C90.24434494 105.46606064 90.24576996 106.54955292 90.24723816 107.6658783 C89.99916736 110.48994766 89.55217223 112.12891704 88 114.48046875 C85.20129973 115.87981888 83.09501208 115.7331228 80 115.48046875 C77.80816468 113.88074317 77.08531436 112.9967175 76.63923645 110.29743958 C76.64589828 109.45138657 76.65256012 108.60533356 76.65942383 107.73364258 C76.65965042 106.77287308 76.65987701 105.81210358 76.66011047 104.82221985 C76.67559433 103.7877623 76.69107819 102.75330475 76.70703125 101.6875 C76.71127609 100.62633469 76.71552094 99.56516937 76.71989441 98.47184753 C76.73670294 95.0786311 76.77435981 91.68600603 76.8125 88.29296875 C76.827544 85.99414919 76.84123289 83.69532034 76.85351562 81.39648438 C76.88661355 75.75761033 76.9368347 70.11908178 77 64.48046875 C75.40671875 65.27710938 75.40671875 65.27710938 73.78125 66.08984375 C63.390625 71.28515625 63.390625 71.28515625 53 76.48046875 C52.98541748 77.72135254 52.97083496 78.96223633 52.95581055 80.24072266 C52.89769277 84.85917496 52.82046053 89.47714659 52.73754883 94.09521484 C52.70436287 96.09122904 52.67631132 98.08733564 52.65356445 100.08349609 C52.61990207 102.95840715 52.56758023 105.83247618 52.51171875 108.70703125 C52.50532883 109.59476227 52.4989389 110.48249329 52.49235535 111.39712524 C52.37184695 116.51365871 51.74466212 120.00699198 49 124.48046875 C48.63261719 125.09792969 48.26523437 125.71539062 47.88671875 126.3515625 C39.39304734 137.44590203 21.60303607 141.86616527 8.375 144.08984375 C-15.69297896 146.6884581 -44.64702699 146.12071265 -64.51953125 130.5 C-69.10985943 126.22396456 -72.51796051 121.61399176 -73.26210022 115.23294067 C-73.34527473 112.68647114 -73.33766093 110.15680022 -73.29296875 107.609375 C-73.28872391 106.68704575 -73.28447906 105.76471649 -73.28010559 104.81443787 C-73.26341364 101.8903084 -73.22577938 98.96688726 -73.1875 96.04296875 C-73.17244089 94.0514423 -73.15875464 92.05990496 -73.14648438 90.06835938 C-73.11354122 85.20545937 -73.06182499 80.34308385 -73 75.48046875 C-74.04401978 75.31853027 -74.04401978 75.31853027 -75.10913086 75.15332031 C-80.28125279 73.94950577 -84.9252957 71.41791477 -89.69311523 69.12548828 C-91.55437972 68.23435656 -93.42410714 67.36305434 -95.29492188 66.4921875 C-96.47763672 65.92628906 -97.66035156 65.36039062 -98.87890625 64.77734375 C-99.9572876 64.26526367 -101.03566895 63.75318359 -102.14672852 63.22558594 C-105.83428961 60.97020075 -108.07310514 58.33425846 -110 54.48046875 C-110.55160506 48.85409717 -109.51052731 44.88940591 -106 40.48046875 C-103.66597677 38.70075379 -101.16744429 37.52218228 -98.5 36.31640625 C-97.39049484 35.78481148 -97.39049484 35.78481148 -96.25857544 35.24247742 C-93.84794132 34.09349605 -91.42467978 32.97446243 -89 31.85546875 C-87.31801475 31.06092422 -85.63686859 30.26460111 -83.95654297 29.46655273 C-79.75866117 27.47916035 -75.54993065 25.51623892 -71.33581543 23.5635376 C-69.18467898 22.56610054 -67.03562836 21.56437168 -64.88769531 20.56005859 C-59.08269555 17.84583286 -53.27057919 15.14772037 -47.44921875 12.46875 C-39.93112276 9.0008758 -32.46748541 5.42131103 -25.01416016 1.81665039 C-23.69037354 1.1784436 -23.69037354 1.1784436 -22.33984375 0.52734375 C-21.57019287 0.15448242 -20.80054199 -0.21837891 -20.00756836 -0.60253906 C-12.94443246 -3.82875072 -6.95256551 -2.93456849 0 0 Z " fill="#091C11" transform="translate(260,178.51953125)"/>
<path d="M0 0 C0 0.66 0 1.32 0 2 C0.71736328 2.11609619 1.43472656 2.23219238 2.17382812 2.35180664 C5.13222503 3.03032632 7.49479716 4.03953184 10.21875 5.37109375 C11.22244629 5.85779541 12.22614258 6.34449707 13.26025391 6.84594727 C14.32937012 7.37115967 15.39848633 7.89637207 16.5 8.4375 C18.7680694 9.53939142 21.036301 10.64094902 23.3046875 11.7421875 C24.43616211 12.29358398 25.56763672 12.84498047 26.73339844 13.41308594 C31.35124855 15.65643614 35.98685416 17.86150524 40.625 20.0625 C42.31777794 20.86834339 44.01048566 21.67433428 45.703125 22.48046875 C48.47756701 23.80100653 51.25279326 25.11983639 54.02929688 26.43603516 C57.14564877 27.91334865 60.26039259 29.39401285 63.375 30.875 C64.33229004 31.3275415 65.28958008 31.78008301 66.27587891 32.24633789 C71.3128035 34.6448521 76.19940407 37.15667183 81 40 C78.23996485 42.18847689 75.53977856 43.82240424 72.3515625 45.3125 C71.44019531 45.74240234 70.52882813 46.17230469 69.58984375 46.61523438 C68.61144531 47.07220703 67.63304687 47.52917969 66.625 48 C58.70164343 51.74186259 50.82344283 55.55346036 43 59.5 C34.36516169 63.84943474 25.67306447 68.06565762 16.9375 72.20898438 C16.04546875 72.63244141 15.1534375 73.05589844 14.234375 73.4921875 C13.36490234 73.90178711 12.49542969 74.31138672 11.59960938 74.73339844 C9.83196622 75.59464305 8.08323951 76.49559193 6.35351562 77.43066406 C1.38873182 80.09665929 -2.24171287 82.02553565 -8 81 C-11.63524953 79.55477766 -15.0509592 77.77762405 -18.5 75.9375 C-20.47836082 74.91380572 -22.45752912 73.89167046 -24.4375 72.87109375 C-25.87416016 72.12448486 -25.87416016 72.12448486 -27.33984375 71.36279297 C-30.68907409 69.64698866 -34.07660677 68.06268731 -37.5 66.5 C-44.50588217 63.2736069 -51.38722871 59.8208545 -58.27587891 56.35229492 C-68.77642397 51.08024832 -79.38283426 46.03204821 -90 41 C-90 40.34 -90 39.68 -90 39 C-88.9483667 38.50185791 -87.8967334 38.00371582 -86.81323242 37.49047852 C-85.76403877 36.99349205 -85.76403877 36.99349205 -84.69364929 36.48646545 C-83.92204971 36.12097092 -83.15045013 35.75547638 -82.35546875 35.37890625 C-81.15788689 34.81163063 -81.15788689 34.81163063 -79.93611145 34.2328949 C-78.2268575 33.42324829 -76.51760356 32.61360168 -74.80834961 31.80395508 C-73.94346924 31.3942749 -73.07858887 30.98459473 -72.1875 30.5625 C-67.17773438 28.18945313 -67.17773438 28.18945313 -64.67765808 27.00521851 C-62.99479452 26.20806453 -61.3119435 25.41088405 -59.62910461 24.61367798 C-55.39975638 22.61016252 -51.17019804 20.60709314 -46.94018555 18.60498047 C-38.09817325 14.41945597 -29.26078686 10.224891 -20.4375 6 C-19.44298828 5.52433594 -18.44847656 5.04867187 -17.42382812 4.55859375 C-10.9051597 1.43923094 -7.2484751 -0.11691089 0 0 Z " fill="#38C065" transform="translate(254,189)"/>
<path d="M0 0 C2.68780178 1.27019804 5.37528516 2.54106107 8.0625 3.8125 C8.8978125 4.20759766 9.733125 4.60269531 10.59375 5.00976562 C15.49462595 7.33066503 20.3893638 9.66377091 25.27734375 12.01171875 C26.3130249 12.50889404 27.34870605 13.00606934 28.41577148 13.51831055 C30.45116513 14.49613086 32.48584921 15.47542975 34.51977539 16.45629883 C35.45168701 16.90384521 36.38359863 17.3513916 37.34375 17.8125 C38.17068359 18.21082031 38.99761719 18.60914063 39.84960938 19.01953125 C45.76896732 21.7184574 51.01654435 22.00561752 57.140625 19.94140625 C60.81235588 18.39475249 64.41863115 16.74321614 68 15 C68.66016113 14.67902344 69.32032227 14.35804688 70.00048828 14.02734375 C75.8948303 11.14170475 81.74236141 8.16582061 87.57421875 5.15625 C88.64285156 4.6096875 89.71148437 4.063125 90.8125 3.5 C91.74707031 3.0153125 92.68164062 2.530625 93.64453125 2.03125 C96 1 96 1 99 1 C99.09915614 5.60809095 99.17160182 10.21555592 99.21972656 14.82446289 C99.23979558 16.39097923 99.26705751 17.95742109 99.30175781 19.52368164 C99.35048754 21.78029794 99.3730147 24.03592083 99.390625 26.29296875 C99.41127014 26.98899704 99.43191528 27.68502533 99.45318604 28.40214539 C99.45482173 31.97704352 99.08788941 33.86514053 97.11694336 36.8894043 C85.52499943 48.44658977 63.7471992 50.27320505 48.25 50.5 C32.23313582 50.46351831 13.12175795 47.33970905 1 36 C-0.53297297 32.93405406 -0.12131455 29.72888147 -0.09765625 26.3671875 C-0.0962413 25.61535187 -0.09482635 24.86351624 -0.09336853 24.08889771 C-0.08776465 21.6842249 -0.07521157 19.27964473 -0.0625 16.875 C-0.0574855 15.24609509 -0.0529225 13.61718873 -0.04882812 11.98828125 C-0.03779397 7.99215173 -0.02052679 3.99609158 0 0 Z " fill="#39C065" transform="translate(200,261)"/>
<path d="M0 0 C0.33 0 0.66 0 1 0 C0.99777939 0.58215775 0.99555878 1.16431549 0.99327087 1.76411438 C0.97117418 7.81466052 0.95607501 13.86519522 0.94506836 19.91577148 C0.94003474 22.1748908 0.93320738 24.43400686 0.92456055 26.69311523 C0.91245255 29.93734543 0.90676201 33.18153261 0.90234375 36.42578125 C0.89718246 37.43836502 0.89202118 38.45094879 0.88670349 39.49421692 C0.88662796 40.43496567 0.88655243 41.37571442 0.88647461 42.3449707 C0.884254 43.17325882 0.88203339 44.00154694 0.87974548 44.85493469 C0.91626804 47.18652286 0.91626804 47.18652286 2 50 C2.12781786 52.67394964 2.04391871 55.32095857 2 58 C2.66 58 3.32 58 4 58 C4 62.29 4 66.58 4 71 C4.66 71 5.32 71 6 71 C8.61895048 75.77573323 7.83119431 79.84434881 7 85 C4.67031373 81.50547059 3.91408393 78.15268231 3 74.125 C2.835 73.43664062 2.67 72.74828125 2.5 72.0390625 C1.95759927 69.69995936 1.47287612 67.35413532 1 65 C0.81397217 64.13342773 0.62794434 63.26685547 0.4362793 62.37402344 C-1.49133577 52.04659663 -1.26767998 41.68297338 -1.20581055 31.21337891 C-1.18738269 27.97941307 -1.18530258 24.74573201 -1.18554688 21.51171875 C-1.18063647 19.44531003 -1.17481025 17.37890323 -1.16796875 15.3125 C-1.16685593 14.35102051 -1.1657431 13.38954102 -1.16459656 12.39892578 C-1.15821671 11.50028809 -1.15183685 10.60165039 -1.14526367 9.67578125 C-1.14145187 8.89114502 -1.13764008 8.10650879 -1.13371277 7.2980957 C-0.98794017 4.79273005 -0.54416475 2.44721069 0 0 Z " fill="#6FC48C" transform="translate(51,222)"/>
<path d="M0 0 C0.00808685 0.59690643 0.01617371 1.19381287 0.02450562 1.80880737 C0.11037197 8.0054097 0.20986693 14.20168548 0.31738281 20.39794922 C0.35573401 22.71234669 0.3905759 25.02680502 0.421875 27.34130859 C0.4673924 30.66265664 0.52540843 33.98358341 0.5859375 37.3046875 C0.59748871 38.34430634 0.60903992 39.38392517 0.62094116 40.45504761 C0.64081085 41.41589264 0.66068054 42.37673767 0.68115234 43.36669922 C0.69447601 44.21497284 0.70779968 45.06324646 0.7215271 45.93722534 C0.81776158 48.22186119 0.81776158 48.22186119 3 50 C5.68839385 50.26991906 8.29141936 50.08737357 11 50 C11.33 49.34 11.66 48.68 12 48 C11.625 49.9375 11.625 49.9375 11 52 C8.04335481 53.4783226 5.25770263 53.06032783 2 53 C1.505 51.515 1.505 51.515 1 50 C0.34 50 -0.32 50 -1 50 C-1.92687325 47.21938025 -2.12193396 45.57948141 -2.11352539 42.7121582 C-2.11341209 41.42115959 -2.11341209 41.42115959 -2.11329651 40.1040802 C-2.10813522 39.17899155 -2.10297394 38.25390289 -2.09765625 37.30078125 C-2.09553383 35.87550362 -2.09553383 35.87550362 -2.09336853 34.4214325 C-2.08776875 31.38508971 -2.07521632 28.34882052 -2.0625 25.3125 C-2.05748497 23.25455836 -2.05292207 21.19661556 -2.04882812 19.13867188 C-2.0377994 14.09241954 -2.02053493 9.04622225 -2 4 C-3.32 3.67 -4.64 3.34 -6 3 C-2.25 0 -2.25 0 0 0 Z " fill="#3FA160" transform="translate(337,243)"/>
<path d="M0 0 C0.33 0.66 0.66 1.32 1 2 C0.67 2.99 0.34 3.98 0 5 C-0.99 5 -1.98 5 -3 5 C-3.309375 5.78375 -3.61875 6.5675 -3.9375 7.375 C-5 10 -5 10 -6 12 C-7.32 12 -8.64 12 -10 12 C-10.2475 12.639375 -10.495 13.27875 -10.75 13.9375 C-12 16 -12 16 -14.125 16.75 C-15.053125 16.87375 -15.053125 16.87375 -16 17 C-16 18.32 -16 19.64 -16 21 C-18.375 23.75 -18.375 23.75 -21 26 C-21.66 26 -22.32 26 -23 26 C-23 26.66 -23 27.32 -23 28 C-23.99 28 -24.98 28 -26 28 C-26 28.66 -26 29.32 -26 30 C-26.66 29.67 -27.32 29.34 -28 29 C-23.24048052 22.53739368 -17.98241801 16.78939245 -12.3125 11.125 C-11.67111084 10.48296631 -11.02972168 9.84093262 -10.36889648 9.17944336 C-7.05569771 5.90409496 -3.71464723 2.82682524 0 0 Z " fill="#70C78C" transform="translate(122,95)"/>
<path d="M0 0 C3.10917296 1.42684596 6.21136053 2.86828703 9.3125 4.3125 C10.19357422 4.71662109 11.07464844 5.12074219 11.98242188 5.53710938 C12.82998047 5.93349609 13.67753906 6.32988281 14.55078125 6.73828125 C15.33106689 7.09962158 16.11135254 7.46096191 16.9152832 7.83325195 C19.00227748 9.00127463 20.40816358 10.23005601 22 12 C16.59857495 10.37957248 11.70451907 8.44072664 6.671875 5.8828125 C5.60549805 5.34285645 4.53912109 4.80290039 3.44042969 4.24658203 C2.63508789 3.83520996 1.82974609 3.42383789 1 3 C1.04429041 7.03920904 1.11426321 11.07709542 1.20751953 15.11547852 C1.23565375 16.48774907 1.25690586 17.86017941 1.27099609 19.23266602 C1.29252731 21.21138494 1.3412928 23.1897477 1.390625 25.16796875 C1.41157227 26.35672607 1.43251953 27.5454834 1.45410156 28.77026367 C2.10459548 32.61882543 3.21130454 34.30337241 6 37 C9.64182335 37.89055736 9.64182335 37.89055736 13 38 C12.67 38.66 12.34 39.32 12 40 C8.16526716 40.35671933 6.44657125 40.29771416 3.1875 38.125 C0.33586912 35.35484429 0.02273043 34.6703767 -0.11352539 30.65185547 C-0.11336688 29.22362303 -0.10770735 27.79538458 -0.09765625 26.3671875 C-0.0962413 25.61535187 -0.09482635 24.86351624 -0.09336853 24.08889771 C-0.08776465 21.6842249 -0.07521157 19.27964473 -0.0625 16.875 C-0.0574855 15.24609509 -0.0529225 13.61718873 -0.04882812 11.98828125 C-0.03779397 7.99215173 -0.02052679 3.99609158 0 0 Z " fill="#47AD6C" transform="translate(200,261)"/>
<path d="M0 0 C4.26488247 -0.3118744 6.98566073 0.65574011 10.8125 2.5 C12.27623047 3.19609375 12.27623047 3.19609375 13.76953125 3.90625 C14.50558594 4.2671875 15.24164063 4.628125 16 5 C16 5.66 16 6.32 16 7 C16.7425 7.144375 17.485 7.28875 18.25 7.4375 C20.52027739 7.90187492 22.75759479 8.41863569 25 9 C25 9.66 25 10.32 25 11 C25.78375 11.144375 26.5675 11.28875 27.375 11.4375 C30 12 30 12 32 13 C37.01447396 13.59696119 39.95781679 12.24364579 44.16796875 9.77734375 C46 9 46 9 49 10 C47.32363266 11.01855231 45.63324613 12.01404801 43.9375 13 C42.99777344 13.556875 42.05804688 14.11375 41.08984375 14.6875 C36.51331105 16.63151389 33.22044949 16.87896904 28.52807617 15.02148438 C25.68399949 13.66957993 22.9036083 12.23167308 20.125 10.75 C18.23274673 9.76375035 16.33952749 8.77935166 14.4453125 7.796875 C13.5368457 7.32314453 12.62837891 6.84941406 11.69238281 6.36132812 C7.85943532 4.42330534 3.9498524 2.68458576 0 1 C0 0.67 0 0.34 0 0 Z " fill="#41A665" transform="translate(215,254)"/>
<path d="M0 0 C0.66 0 1.32 0 2 0 C2.33 15.51 2.66 31.02 3 47 C0 44 0 44 -0.36076355 41.96882629 C-0.35410172 41.19383286 -0.34743988 40.41883942 -0.34057617 39.62036133 C-0.34034958 38.73967484 -0.34012299 37.85898834 -0.33988953 36.95161438 C-0.32440567 36.00465195 -0.30892181 35.05768951 -0.29296875 34.08203125 C-0.28872391 33.10965012 -0.28447906 32.13726898 -0.28010559 31.13542175 C-0.26330315 28.02750034 -0.22564779 24.92022566 -0.1875 21.8125 C-0.1724552 19.70638957 -0.15876644 17.60026898 -0.14648438 15.49414062 C-0.11339444 10.32917762 -0.06160109 5.16469849 0 0 Z " fill="#44B06A" transform="translate(185,254)"/>
<path d="M0 0 C0 1.32 0 2.64 0 4 C1.65 4 3.3 4 5 4 C4.67 4.99 4.34 5.98 4 7 C4.60328125 7.10957031 5.2065625 7.21914062 5.828125 7.33203125 C10.35107008 8.22932519 13.42156754 8.99873406 17 12 C20.57417773 13.9628681 24.12946153 15.70982051 28 17 C28 17.66 28 18.32 28 19 C28.99 19 29.98 19 31 19 C31 19.66 31 20.32 31 21 C26.33472573 19.56211601 22.00517317 17.67059409 17.6328125 15.5234375 C16.61343094 15.02827133 16.61343094 15.02827133 15.57345581 14.52310181 C13.42226995 13.47718564 11.2736159 12.42618383 9.125 11.375 C7.65901901 10.66111973 6.19287475 9.94757462 4.7265625 9.234375 C1.14914173 7.49345409 -2.42601883 5.74797055 -6 4 C-6 3.34 -6 2.68 -6 2 C-2.25 0 -2.25 0 0 0 Z " fill="#40A863" transform="translate(170,226)"/>
<path d="M0 0 C1.32 0 2.64 0 4 0 C4 0.66 4 1.32 4 2 C4.928125 1.690625 4.928125 1.690625 5.875 1.375 C6.57625 1.25125 7.2775 1.1275 8 1 C8.66 1.66 9.32 2.32 10 3 C12.6838095 3.65046827 12.6838095 3.65046827 15.75 4.0625 C16.77609375 4.21847656 17.8021875 4.37445313 18.859375 4.53515625 C19.89578125 4.68855469 20.9321875 4.84195312 22 5 C24.00061944 5.32959514 26.00081475 5.66181447 28 6 C28 6.66 28 7.32 28 8 C35.59 8.33 43.18 8.66 51 9 C51 9.33 51 9.66 51 10 C39.60587592 10.53613585 28.76049575 10.45179597 17.625 7.75 C16.77719971 7.54544189 15.92939941 7.34088379 15.0559082 7.13012695 C9.63073566 5.702734 4.93876826 3.65671672 0 1 C0 0.67 0 0.34 0 0 Z " fill="#39955A" transform="translate(208,301)"/>
<path d="M0 0 C4.875 1.75 4.875 1.75 6 4 C6.09182083 6.1547893 6.11750462 8.31249718 6.11352539 10.46923828 C6.11367142 11.13277313 6.11381744 11.79630798 6.1139679 12.47994995 C6.11327031 14.67677053 6.10548514 16.8735067 6.09765625 19.0703125 C6.09579152 20.59203037 6.09436788 22.11374884 6.09336853 23.63546753 C6.08954767 27.64351047 6.07972104 31.65151726 6.06866455 35.6595459 C6.05844118 39.74828604 6.05386892 43.83703201 6.04882812 47.92578125 C6.0380984 55.95053744 6.02102713 63.97526422 6 72 C5.34 72 4.68 72 4 72 C4.00666183 71.21152679 4.01332367 70.42305359 4.02018738 69.61068726 C4.08039374 62.1662059 4.12602261 54.72184324 4.15543652 47.27718163 C4.17106708 43.450144 4.19225718 39.62330821 4.22631836 35.79638672 C4.25900562 32.1005417 4.27687263 28.40489035 4.28463173 24.7089119 C4.29015851 23.30155007 4.30095101 21.89419839 4.31719017 20.4869194 C4.33908635 18.51010294 4.34022644 16.53309004 4.34057617 14.55615234 C4.34723801 13.43252289 4.35389984 12.30889343 4.36076355 11.1512146 C3.94723384 7.53909563 2.78447058 5.14379885 1 2 C0.67 1.34 0.34 0.68 0 0 Z " fill="#48B56E" transform="translate(345,219)"/>
<path d="M0 0 C1.98 0 3.96 0 6 0 C6 0.99 6 1.98 6 3 C6.680625 3.103125 7.36125 3.20625 8.0625 3.3125 C13.60296101 4.60920364 18.13563101 7.0813786 23 10 C22.67 23.86 22.34 37.72 22 52 C21.67 52 21.34 52 21 52 C21 38.14 21 24.28 21 10 C18.525 9.505 18.525 9.505 16 9 C13.96362305 8.15209961 13.96362305 8.15209961 12.01171875 7.15234375 C11.30595703 6.79462891 10.60019531 6.43691406 9.87304688 6.06835938 C9.15181641 5.69517578 8.43058594 5.32199219 7.6875 4.9375 C6.94693359 4.56044922 6.20636719 4.18339844 5.44335938 3.79492188 C3.62612478 2.86871843 1.81267596 1.93509371 0 1 C0 0.67 0 0.34 0 0 Z " fill="#043A14" transform="translate(166,244)"/>
<path d="M0 0 C2.475 0.99 2.475 0.99 5 2 C2.12943549 4.28630504 -0.7215328 5.95397131 -4.03515625 7.5234375 C-5.01033203 7.9875 -5.98550781 8.4515625 -6.99023438 8.9296875 C-8.51100586 9.64511719 -8.51100586 9.64511719 -10.0625 10.375 C-11.54266602 11.07882813 -11.54266602 11.07882813 -13.05273438 11.796875 C-19.67038482 14.93451673 -26.3239083 17.98890789 -33 21 C-33 19 -33 19 -31.875 17.5 C-29.41510375 15.532083 -27.00572414 14.98369154 -24 14 C-22.32437252 13.16354856 -20.65830114 12.30779639 -19 11.4375 C-15.31761921 9.54624703 -12.18240472 8.33018985 -8 8 C-8 7.34 -8 6.68 -8 6 C-4.91190305 4.23537317 -3.76687864 4 0 4 C0 2.68 0 1.36 0 0 Z " fill="#44AE6C" transform="translate(330,227)"/>
<path d="M0 0 C3.36812579 1.68406289 4.04422586 5.51939798 5.375 8.875 C5.68445557 9.64642334 5.99391113 10.41784668 6.31274414 11.21264648 C6.93078369 12.76089779 7.54517699 14.31061002 8.15576172 15.86181641 C8.87272619 17.67765643 9.60821672 19.48616433 10.34765625 21.29296875 C12.51516312 26.80107761 13.44692275 31.07827363 13 37 C12.34 36.67 11.68 36.34 11 36 C10.2890625 33.62890625 10.2890625 33.62890625 9.625 30.5625 C8.43403706 25.45052063 6.84897157 20.77402407 4.76953125 15.9609375 C4 14 4 14 4 12 C3.34 12 2.68 12 2 12 C0.86235649 7.73383684 0 4.43513689 0 0 Z " fill="#82D2A0" transform="translate(426,155)"/>
<path d="M0 0 C-7.28571429 3.42857143 -7.28571429 3.42857143 -12 3 C-12 3.66 -12 4.32 -12 5 C-12.78246094 5.20496094 -13.56492188 5.40992188 -14.37109375 5.62109375 C-15.38300781 5.89050781 -16.39492187 6.15992188 -17.4375 6.4375 C-18.44683594 6.70433594 -19.45617187 6.97117187 -20.49609375 7.24609375 C-22.91752001 7.75978077 -22.91752001 7.75978077 -24 9 C-25.99958364 9.04080783 -28.00045254 9.04254356 -30 9 C-30 9.66 -30 10.32 -30 11 C-33.52948291 12.66670026 -35.28272326 13.13583456 -39 12 C-29.98552928 6.72738505 -10.56878934 -3.39711086 0 0 Z " fill="#73C792" transform="translate(204,56)"/>
<path d="M0 0 C-4.98967849 3.01747355 -9.98902844 6.01801873 -15 9 C-15.96679688 9.57621094 -16.93359375 10.15242188 -17.9296875 10.74609375 C-18.71601563 11.20113281 -19.50234375 11.65617187 -20.3125 12.125 C-20.98925781 12.51945312 -21.66601562 12.91390625 -22.36328125 13.3203125 C-22.90339844 13.54460937 -23.44351562 13.76890625 -24 14 C-26 13 -26 13 -27 11 C-26.01 11 -25.02 11 -24 11 C-24.33 10.01 -24.66 9.02 -25 8 C-21.52176885 6.84058962 -19.54104422 7.29179116 -16 8 C-15.7525 7.360625 -15.505 6.72125 -15.25 6.0625 C-14 4 -14 4 -11.875 3.25 C-11.25625 3.1675 -10.6375 3.085 -10 3 C-10 2.34 -10 1.68 -10 1 C-6.16112237 -0.48320272 -3.93795909 -1.22419163 0 0 Z " fill="#6BC78C" transform="translate(362,417)"/>
<path d="M0 0 C0.33 0 0.66 0 1 0 C0.49263871 7.65044976 -0.67365573 14.91851549 -2.4375 22.375 C-2.65470703 23.33277344 -2.87191406 24.29054688 -3.09570312 25.27734375 C-4.11834869 29.69345282 -5.2396806 33.81160561 -7 38 C-7.33 38 -7.66 38 -8 38 C-8.32971887 32.83440434 -7.50031326 29.19513917 -5.734375 24.35546875 C-4.56479366 20.60409883 -4.31021065 16.90865416 -4 13 C-3.34 13 -2.68 13 -2 13 C-2.061875 11.453125 -2.061875 11.453125 -2.125 9.875 C-2.00424851 6.13170373 -1.35127982 3.46265453 0 0 Z " fill="#7CCD99" transform="translate(442,291)"/>
<path d="M0 0 C1.32 0.66 2.64 1.32 4 2 C2.79670044 2.54358154 2.79670044 2.54358154 1.5690918 3.09814453 C-1.41825016 4.45860469 -4.39669677 5.83568794 -7.37084961 7.22460938 C-8.65678084 7.82092704 -9.94583841 8.41055235 -11.23803711 8.99316406 C-13.10102609 9.83456024 -14.95123838 10.69982707 -16.80078125 11.5703125 C-17.91622314 12.08352051 -19.03166504 12.59672852 -20.1809082 13.12548828 C-23.51773286 15.3442585 -24.53204349 17.32447141 -26 21 C-26.33 21 -26.66 21 -27 21 C-26.67 18.69 -26.34 16.38 -26 14 C-25.34 14 -24.68 14 -24 14 C-23.67 13.01 -23.34 12.02 -23 11 C-20.96875 10.12109375 -20.96875 10.12109375 -18.5 9.4375 C-16.08504595 8.79615283 -16.08504595 8.79615283 -14 8 C-13.67 7.34 -13.34 6.68 -13 6 C-10.9375 5.0625 -10.9375 5.0625 -8 4 C-6.56208022 3.45944868 -5.1245975 2.91773363 -3.6875 2.375 C-1.8621875 1.694375 -1.8621875 1.694375 0 1 C0 0.67 0 0.34 0 0 Z " fill="#41AE67" transform="translate(177,205)"/>
<path d="M0 0 C0.33 0 0.66 0 1 0 C1.02505615 1.01835937 1.0501123 2.03671875 1.07592773 3.0859375 C1.17071658 6.89545413 1.27075718 10.70481846 1.37231445 14.51416016 C1.41539494 16.15702734 1.45708657 17.79993159 1.49731445 19.44287109 C1.55567485 21.81619397 1.61917275 24.18933479 1.68359375 26.5625 C1.70030624 27.28679199 1.71701874 28.01108398 1.73423767 28.75732422 C1.87112908 33.56252014 2.34140418 38.23748503 3 43 C6.47147842 43.74957157 6.47147842 43.74957157 10 44 C9.67 44.99 9.34 45.98 9 47 C3.49721921 47.36685205 3.49721921 47.36685205 1.32206726 45.76200867 C-0.3396357 43.54734448 -0.36421055 42.36982741 -0.34057617 39.62036133 C-0.34034958 38.73967484 -0.34012299 37.85898834 -0.33988953 36.95161438 C-0.32440567 36.00465195 -0.30892181 35.05768951 -0.29296875 34.08203125 C-0.28872391 33.10965012 -0.28447906 32.13726898 -0.28010559 31.13542175 C-0.26330315 28.02750034 -0.22564779 24.92022566 -0.1875 21.8125 C-0.1724552 19.70638957 -0.15876644 17.60026898 -0.14648438 15.49414062 C-0.11339444 10.32917762 -0.06160109 5.16469849 0 0 Z " fill="#002F0E" transform="translate(337,247)"/>
<path d="M0 0 C0.66 0.33 1.32 0.66 2 1 C1.625 3.9375 1.625 3.9375 1 7 C0.01 7.495 0.01 7.495 -1 8 C-1.68472665 9.88764903 -1.68472665 9.88764903 -2.125 12.0625 C-2.29257812 12.79597656 -2.46015625 13.52945313 -2.6328125 14.28515625 C-2.75398438 14.85105469 -2.87515625 15.41695312 -3 16 C-3.66 16 -4.32 16 -5 16 C-4.938125 17.19625 -4.87625 18.3925 -4.8125 19.625 C-4.79056063 23.73497595 -5.86869566 26.4478261 -8 30 C-8.66 30 -9.32 30 -10 30 C-8.88030835 23.84169591 -7.08129201 18.07614047 -5 12.1875 C-4.73880371 11.44636963 -4.47760742 10.70523926 -4.20849609 9.94165039 C-2.98086988 6.52039064 -1.74652282 3.19915959 0 0 Z " fill="#78CB94" transform="translate(66,169)"/>
<path d="M0 0 C11.04599338 1.30216995 21.42984325 4.66585263 32 8 C32 8.33 32 8.66 32 9 C27.32779584 9.18322369 24.27935544 8.72981487 20 7 C18.25733358 6.66730914 16.50620523 6.37662005 14.75 6.125 C9.37570381 5.22077649 4.84037955 3.46202022 0 1 C0 0.67 0 0.34 0 0 Z " fill="#70C48F" transform="translate(288,53)"/>
<path d="M0 0 C0.66 0 1.32 0 2 0 C2 0.66 2 1.32 2 2 C2.556875 1.67 3.11375 1.34 3.6875 1 C6.30284522 -0.1309601 8.1806646 -0.15662974 11 0 C8.58689135 2.41310865 6.28894407 3.38819163 3.1875 4.8203125 C2.02992188 5.35527344 0.87234375 5.89023438 -0.3203125 6.44140625 C-0.92391602 6.71742676 -1.52751953 6.99344727 -2.14941406 7.27783203 C-3.99575369 8.12305611 -5.83786935 8.97700675 -7.6796875 9.83203125 C-16.74224425 14 -16.74224425 14 -19 14 C-19 13.34 -19 12.68 -19 12 C-18.01 12 -17.02 12 -16 12 C-16 11.34 -16 10.68 -16 10 C-12.2337795 8.35227853 -8.53047304 6.84552544 -4.625 5.5625 C-3.42875 5.046875 -2.2325 4.53125 -1 4 C-0.22124063 1.96589311 -0.22124063 1.96589311 0 0 Z " fill="#41B068" transform="translate(227,179)"/>
<path d="M0 0 C-8.49868864 4.50027823 -17.38857155 4.2841296 -26.8125 4.1875 C-28.02615234 4.18685547 -29.23980469 4.18621094 -30.49023438 4.18554688 C-40.22241746 4.13707446 -40.22241746 4.13707446 -44 3 C-43.67 2.34 -43.34 1.68 -43 1 C-42.43756592 1.16226074 -41.87513184 1.32452148 -41.2956543 1.49169922 C-38.88053387 2.02645203 -36.74095217 2.12937349 -34.26953125 2.1328125 C-32.94211914 2.13474609 -32.94211914 2.13474609 -31.58789062 2.13671875 C-30.67201172 2.13285156 -29.75613281 2.12898438 -28.8125 2.125 C-27.4212793 2.13080078 -27.4212793 2.13080078 -26.00195312 2.13671875 C-25.12087891 2.13542969 -24.23980469 2.13414062 -23.33203125 2.1328125 C-22.52483643 2.13168457 -21.7176416 2.13055664 -20.88598633 2.12939453 C-18.98763865 2.20665489 -18.98763865 2.20665489 -18 1 C-16.10985552 0.76189471 -14.21188854 0.58468509 -12.3125 0.4375 C-11.27738281 0.35371094 -10.24226563 0.26992188 -9.17578125 0.18359375 C-6.10862687 0.00627978 -3.07144125 -0.03223402 0 0 Z " fill="#43B169" transform="translate(280,306)"/>
<path d="M0 0 C0 3 0 3 -2.25 5.625 C-4.83919974 7.86112705 -5.7509283 8.59386604 -9 9 C-12.61261365 9.6618087 -12.61261365 9.6618087 -16 11 C-16.66 10.34 -17.32 9.68 -18 9 C-15.37785672 7.49480613 -12.75255792 5.99568681 -10.125 4.5 C-9.37863281 4.07074219 -8.63226563 3.64148438 -7.86328125 3.19921875 C-7.14785156 2.79316406 -6.43242187 2.38710937 -5.6953125 1.96875 C-5.03547363 1.59169922 -4.37563477 1.21464844 -3.69580078 0.82617188 C-2 0 -2 0 0 0 Z " fill="#59C47F" transform="translate(164,69)"/>
<path d="M0 0 C1.18851563 0.27714844 2.37703125 0.55429687 3.6015625 0.83984375 C16.42663383 3.68927868 28.87637378 4.78164936 42 5 C42 5.33 42 5.66 42 6 C38.00001563 6.02927916 34.00005924 6.04689219 30 6.0625 C28.87464844 6.07087891 27.74929687 6.07925781 26.58984375 6.08789062 C20.63331773 6.10530737 14.8780369 6.01028759 9 5 C8.67 4.67 8.34 4.34 8 4 C5.67182036 3.63239269 3.3381615 3.29758419 1 3 C0.67 2.01 0.34 1.02 0 0 Z " fill="#3E9C60" transform="translate(214,318)"/>
<path d="M0 0 C0 0.99 0 1.98 0 3 C-1.42578125 4.3515625 -1.42578125 4.3515625 -3.3125 5.625 C-3.92738281 6.05039063 -4.54226562 6.47578125 -5.17578125 6.9140625 C-7 8 -7 8 -10 9 C-11.175625 10.2375 -11.175625 10.2375 -12.375 11.5 C-15.0971156 14.09249105 -16.33929183 14.68622501 -20 15 C-14.13700801 8.77057101 -7.50630454 4.06591496 0 0 Z " fill="#74C995" transform="translate(145,79)"/>
<path d="M0 0 C1.98 0.99 1.98 0.99 4 2 C4 3.65 4 5.3 4 7 C4.66 7 5.32 7 6 7 C6.66 8.98 7.32 10.96 8 13 C8.66 13 9.32 13 10 13 C10.625 15.375 10.625 15.375 11 18 C10.34 18.66 9.68 19.32 9 20 C7.48987869 17.23456804 5.99369852 14.46183193 4.5 11.6875 C4.07074219 10.90181641 3.64148438 10.11613281 3.19921875 9.30664062 C2.79316406 8.54931641 2.38710937 7.79199219 1.96875 7.01171875 C1.59169922 6.31522217 1.21464844 5.61872559 0.82617188 4.90112305 C0 3 0 3 0 0 Z " fill="#61C386" transform="translate(67,331)"/>
<path d="M0 0 C3.90285767 1.58667578 6.33520982 4.13350481 9.25 7.125 C10.14203125 8.03507812 11.0340625 8.94515625 11.953125 9.8828125 C12.62859375 10.58148438 13.3040625 11.28015625 14 12 C10.2578125 13.1015625 10.2578125 13.1015625 7.9375 12.1875 C6.26725575 11.16380191 4.62998496 10.08665664 3 9 C2.8125 5.875 2.8125 5.875 3 3 C2.01 3 1.02 3 0 3 C0 2.01 0 1.02 0 0 Z " fill="#53C27C" transform="translate(381,99)"/>
<path d="M0 0 C-10.42835801 2.81847514 -21.12430216 5.50584641 -32 5 C-28.97825147 1.97825147 -26.14917464 1.85654854 -22.0625 1.5625 C-16.83977641 1.13884822 -11.77015474 0.30418454 -6.62890625 -0.6953125 C-4.05943192 -0.9931119 -2.42913358 -0.81545383 0 0 Z " fill="#7AC794" transform="translate(299,445)"/>
<path d="M0 0 C0 10.89 0 21.78 0 33 C-0.33 33 -0.66 33 -1 33 C-1.33 23.43 -1.66 13.86 -2 4 C-3.32 3.67 -4.64 3.34 -6 3 C-6.33 3.66 -6.66 4.32 -7 5 C-7.66 4.34 -8.32 3.68 -9 3 C-3.375 0 -3.375 0 0 0 Z " fill="#47B26E" transform="translate(299,262)"/>
<path d="M0 0 C6.20477864 1.93624298 12.10825719 4.25609141 18 7 C17.67 7.66 17.34 8.32 17 9 C14.36 9 11.72 9 9 9 C8.814375 8.401875 8.62875 7.80375 8.4375 7.1875 C6.27726247 3.90018201 3.64892345 3.35145313 0 2 C0 1.34 0 0.68 0 0 Z " fill="#5EC184" transform="translate(320,62)"/>
<path d="M0 0 C0.6875 1.6875 0.6875 1.6875 1 4 C0.505 4.804375 0.01 5.60875 -0.5 6.4375 C-2.29290969 8.9151804 -2.29290969 8.9151804 -1.6875 11.8125 C-1.460625 12.534375 -1.23375 13.25625 -1 14 C-2.3303125 13.9071875 -2.3303125 13.9071875 -3.6875 13.8125 C-7.36731392 14.02079135 -8.95389395 15.05387669 -12 17 C-12.66 16.67 -13.32 16.34 -14 16 C-13.46890625 15.64808594 -12.9378125 15.29617188 -12.390625 14.93359375 C-7.36293374 11.41971464 -4.69666487 8.49704763 -2 3 C-1.34 2.01 -0.68 1.02 0 0 Z " fill="#41AE69" transform="translate(312,296)"/>
<path d="M0 0 C0.33 0 0.66 0 1 0 C1.14287139 5.9265028 1.28527606 11.85301656 1.42724609 17.77954102 C1.47561993 19.79614567 1.52412185 21.81274726 1.57275391 23.8293457 C1.64258874 26.72606626 1.71196466 29.6227975 1.78125 32.51953125 C1.80312378 33.42274612 1.82499756 34.325961 1.84753418 35.25654602 C1.86755493 36.09719101 1.88757568 36.937836 1.90820312 37.80395508 C1.92596802 38.54341873 1.94373291 39.28288239 1.96203613 40.04475403 C1.99410207 41.69623989 2 43.34820287 2 45 C1.34 44.67 0.68 44.34 0 44 C0 29.48 0 14.96 0 0 Z " fill="#002106" transform="translate(188,255)"/>
<path d="M0 0 C-2.88386229 1.92257486 -3.74036881 2.2846315 -6.984375 2.59765625 C-7.75523437 2.67693359 -8.52609375 2.75621094 -9.3203125 2.83789062 C-10.12210937 2.91201172 -10.92390625 2.98613281 -11.75 3.0625 C-13.3282268 3.21902905 -14.90635382 3.37656774 -16.484375 3.53515625 C-17.62229492 3.64754639 -17.62229492 3.64754639 -18.78320312 3.76220703 C-21.86955397 4.09327594 -24.93096467 4.53636231 -28 5 C-26.14541244 2.58241264 -25.0418934 2.01030798 -22.03125 1.26953125 C-14.6379856 0.31265964 -7.45578105 -0.27388583 0 0 Z " fill="#52BC79" transform="translate(307,442)"/>
<path d="M0 0 C0.66 0 1.32 0 2 0 C1.40149598 2.98965642 0.51087951 4.99778498 -1.28515625 7.453125 C-1.73310547 8.071875 -2.18105469 8.690625 -2.64257812 9.328125 C-3.11115234 9.96234375 -3.57972656 10.5965625 -4.0625 11.25 C-4.53494141 11.8996875 -5.00738281 12.549375 -5.49414062 13.21875 C-6.65723529 14.81653662 -7.82788601 16.40881803 -9 18 C-10.125 14.25 -10.125 14.25 -9 12 C-8.01 12 -7.02 12 -6 12 C-6 10.35 -6 8.7 -6 7 C-4.68 6.67 -3.36 6.34 -2 6 C-1.855625 5.38125 -1.71125 4.7625 -1.5625 4.125 C-1 2 -1 2 0 0 Z " fill="#73C996" transform="translate(418,355)"/>
<path d="M0 0 C0.99 0.33 1.98 0.66 3 1 C3 1.66 3 2.32 3 3 C3.99 3.33 4.98 3.66 6 4 C3.21128823 5.33957921 0.41856938 6.67058435 -2.375 8 C-3.1690625 8.3815625 -3.963125 8.763125 -4.78125 9.15625 C-5.54179687 9.5171875 -6.30234375 9.878125 -7.0859375 10.25 C-7.7876709 10.58515625 -8.4894043 10.9203125 -9.21240234 11.265625 C-11 12 -11 12 -13 12 C-13 11.34 -13 10.68 -13 10 C-11.35 9.67 -9.7 9.34 -8 9 C-8 8.34 -8 7.68 -8 7 C-7.05125 6.773125 -6.1025 6.54625 -5.125 6.3125 C-1.80676612 5.30916286 -1.80676612 5.30916286 -0.625 2.375 C-0.41875 1.59125 -0.2125 0.8075 0 0 Z " fill="#072912" transform="translate(326,242)"/>
<path d="M0 0 C-4.46229939 4.93201511 -10.54729154 7.66097642 -17 9 C-18.34205087 8.70370903 -19.67774313 8.37486753 -21 8 C-18.44342265 6.65411674 -15.88076095 5.32324672 -13.3125 4 C-12.59126953 3.6184375 -11.87003906 3.236875 -11.12695312 2.84375 C-7.29453447 0.8837916 -4.42628851 -0.55874253 0 0 Z " fill="#072C13" transform="translate(333,232)"/>
<path d="M0 0 C0.66 0.99 1.32 1.98 2 3 C1.01 3.33 0.02 3.66 -1 4 C-1 4.66 -1 5.32 -1 6 C-1.66 6 -2.32 6 -3 6 C-3.061875 6.721875 -3.12375 7.44375 -3.1875 8.1875 C-4.24456647 11.84657625 -6.20550071 13.49211602 -9 16 C-9.66 15.67 -10.32 15.34 -11 15 C-9.54420484 12.87322106 -8.08549775 10.7485458 -6.625 8.625 C-6.2125 8.02171875 -5.8 7.4184375 -5.375 6.796875 C-3.6977605 4.36217249 -2.09532229 2.09532229 0 0 Z " fill="#71C990" transform="translate(93,125)"/>
<path d="M0 0 C2.47960136 0.14024219 4.95852402 0.2869185 7.4375 0.4375 C8.14455078 0.47681641 8.85160156 0.51613281 9.58007812 0.55664062 C14.88671875 0.88671875 14.88671875 0.88671875 16 2 C18.0587768 2.27953219 20.11728432 2.44734351 22.1875 2.62109375 C23.0846875 2.80865234 23.0846875 2.80865234 24 3 C24.33 3.66 24.66 4.32 25 5 C16.33459773 4.5946828 8.34226001 3.38994476 0 1 C0 0.67 0 0.34 0 0 Z " fill="#73C692" transform="translate(201,444)"/>
<path d="M0 0 C7.75 0.875 7.75 0.875 10 2 C10 2.66 10 3.32 10 4 C10.99 4.33 11.98 4.66 13 5 C12.01 5.495 12.01 5.495 11 6 C10.67 6.66 10.34 7.32 10 8 C8.33055479 6.85821872 6.6645052 5.71147095 5 4.5625 C4.071875 3.92441406 3.14375 3.28632813 2.1875 2.62890625 C1.465625 2.09136719 0.74375 1.55382812 0 1 C0 0.67 0 0.34 0 0 Z " fill="#6EC88E" transform="translate(127,408)"/>
<path d="M0 0 C1.23816075 3.74262227 0.99631716 7.15837296 0.75 11.0625 C0.68296875 12.29097656 0.6159375 13.51945313 0.546875 14.78515625 C-0.00845284 18.04969064 -0.38592503 19.08160627 -3 21 C-3.37369729 13.52605426 -2.04061541 7.17859349 0 0 Z " fill="#70C78F" transform="translate(55,201)"/>
<path d="M0 0 C1.64630328 0.14042877 3.29204179 0.28749329 4.9375 0.4375 C6.31228516 0.55931641 6.31228516 0.55931641 7.71484375 0.68359375 C10 1 10 1 11 2 C13.32817964 2.36760731 15.6618385 2.70241581 18 3 C18 3.99 18 4.98 18 6 C11.82777121 4.75971762 5.93317878 3.10396411 0 1 C0 0.67 0 0.34 0 0 Z " fill="#7BC796" transform="translate(181,438)"/>
<path d="M0 0 C0 1.32 0 2.64 0 4 C1.65 4 3.3 4 5 4 C4.67 4.99 4.34 5.98 4 7 C4.66 7.33 5.32 7.66 6 8 C5.01 8.495 5.01 8.495 4 9 C1.6171875 8.00390625 1.6171875 8.00390625 -1.125 6.5625 C-2.03507813 6.08941406 -2.94515625 5.61632812 -3.8828125 5.12890625 C-4.58148438 4.75636719 -5.28015625 4.38382813 -6 4 C-6 3.34 -6 2.68 -6 2 C-2.25 0 -2.25 0 0 0 Z " fill="#3DA060" transform="translate(170,226)"/>
<path d="M0 0 C1.2065625 0.0309375 1.2065625 0.0309375 2.4375 0.0625 C-1.24350818 3.21073068 -5.40032734 4.88301175 -9.8125 6.75 C-10.55757812 7.07033203 -11.30265625 7.39066406 -12.0703125 7.72070312 C-13.89898991 8.50609663 -15.73047236 9.28495338 -17.5625 10.0625 C-17.5625 9.0725 -17.5625 8.0825 -17.5625 7.0625 C-16.56347656 6.64097656 -15.56445312 6.21945313 -14.53515625 5.78515625 C-13.23171692 5.23189783 -11.92833443 4.67850549 -10.625 4.125 C-9.6359668 3.70831055 -9.6359668 3.70831055 -8.62695312 3.28320312 C-0.96892534 0.02363233 -0.96892534 0.02363233 0 0 Z " fill="#43AB66" transform="translate(199.5625,195.9375)"/>
<path d="M0 0 C-2.62035018 1.36389525 -5.24556999 2.71632173 -7.875 4.0625 C-8.99455078 4.64741211 -8.99455078 4.64741211 -10.13671875 5.24414062 C-10.85214844 5.60830078 -11.56757813 5.97246094 -12.3046875 6.34765625 C-13.2944458 6.85824585 -13.2944458 6.85824585 -14.30419922 7.37915039 C-14.86381348 7.58403076 -15.42342773 7.78891113 -16 8 C-16.66 7.67 -17.32 7.34 -18 7 C-15.77644774 4.4429149 -14.24981807 3.75829088 -11 3 C-10.67 2.34 -10.34 1.68 -10 1 C-3.67567568 -1.22522523 -3.67567568 -1.22522523 0 0 Z " fill="#42AE69" transform="translate(283,255)"/>
<path d="M0 0 C-1.39153744 4.42761914 -3.52071486 6.9556255 -7 10 C-7.66 10 -8.32 10 -9 10 C-8.52048204 5.68433833 -7.29764982 3.7980059 -4 1 C-2 0 -2 0 0 0 Z " fill="#06290C" transform="translate(160,217)"/>
<path d="M0 0 C3.32445643 6.06224407 4.36108506 13.13938387 4 20 C-0.32866427 13.50700359 -0.24220585 7.56220495 0 0 Z " fill="#7ECB9B" transform="translate(439,192)"/>
<path d="M0 0 C2.64 0 5.28 0 8 0 C8 0.66 8 1.32 8 2 C8.721875 2.103125 9.44375 2.20625 10.1875 2.3125 C13.24491993 3.05986932 15.38329635 4.28045189 18 6 C17.34 6.66 16.68 7.32 16 8 C15.43152344 7.65066406 14.86304688 7.30132812 14.27734375 6.94140625 C9.41185676 4.07409923 5.64963229 2.36061483 0 2 C0 1.34 0 0.68 0 0 Z " fill="#3EA260" transform="translate(246,189)"/>
<path d="M0 0 C4.63708939 2.60836278 8.78744458 5.77002574 13 9 C12.67 9.66 12.34 10.32 12 11 C11.236875 10.690625 10.47375 10.38125 9.6875 10.0625 C7.81210323 9.32106407 5.91315348 8.63771783 4 8 C4 7.01 4 6.02 4 5 C3.34 5 2.68 5 2 5 C2 4.01 2 3.02 2 2 C1.34 2 0.68 2 0 2 C0 1.34 0 0.68 0 0 Z " fill="#78C998" transform="translate(368,88)"/>
<path d="M0 0 C0.99 0.66 1.98 1.32 3 2 C2.21654285 3.17219543 1.42297164 4.33763668 0.625 5.5 C0.18414062 6.1496875 -0.25671875 6.799375 -0.7109375 7.46875 C-1.34902344 8.22671875 -1.34902344 8.22671875 -2 9 C-2.66 9 -3.32 9 -4 9 C-4.33 9.99 -4.66 10.98 -5 12 C-5.66 10.68 -6.32 9.36 -7 8 C-5.68 7.67 -4.36 7.34 -3 7 C-3.33 6.01 -3.66 5.02 -4 4 C-3.34 4 -2.68 4 -2 4 C-2 3.34 -2 2.68 -2 2 C-1.34 2 -0.68 2 0 2 C0 1.34 0 0.68 0 0 Z " fill="#6CC68E" transform="translate(405,372)"/>
<path d="M0 0 C-1.36591169 3.54243452 -2.90931484 6.92627929 -4.625 10.3125 C-5.07101562 11.19550781 -5.51703125 12.07851563 -5.9765625 12.98828125 C-6.31429688 13.65214844 -6.65203125 14.31601562 -7 15 C-7.93423645 11.98968256 -8.04449911 11.13349732 -7 8 C-6.34 8 -5.68 8 -5 8 C-4.87625 6.865625 -4.7525 5.73125 -4.625 4.5625 C-4.41875 3.386875 -4.2125 2.21125 -4 1 C-2 0 -2 0 0 0 Z " fill="#79CA98" transform="translate(429,340)"/>
<path d="M0 0 C2.77704031 1.38852015 3.03382737 2.96788482 4.1875 5.8125 C4.55230469 6.68519531 4.91710937 7.55789062 5.29296875 8.45703125 C6.04115271 11.14801336 5.9458895 12.415372 5 15 C4.67 14.01 4.34 13.02 4 12 C3.34 12 2.68 12 2 12 C0.86235649 7.73383684 0 4.43513689 0 0 Z " fill="#6FC78D" transform="translate(426,155)"/>
<path d="M0 0 C0.33 0.66 0.66 1.32 1 2 C0.67 2.99 0.34 3.98 0 5 C-0.99 5 -1.98 5 -3 5 C-3.433125 6.2065625 -3.433125 6.2065625 -3.875 7.4375 C-5 10 -5 10 -7 11 C-7.99 10.34 -8.98 9.68 -10 9 C-6.7 6.03 -3.4 3.06 0 0 Z " fill="#72C993" transform="translate(122,95)"/>
<path d="M0 0 C4.69230769 1.48178138 4.69230769 1.48178138 6.1875 4 C6.455625 4.66 6.72375 5.32 7 6 C7.66 6.66 8.32 7.32 9 8 C8.625 10.125 8.625 10.125 8 12 C6.66382103 10.18959679 5.33112616 8.3766216 4 6.5625 C3.2575 5.55316406 2.515 4.54382813 1.75 3.50390625 C0 1 0 1 0 0 Z " fill="#79CA96" transform="translate(83,361)"/>
<path d="M0 0 C5.06998019 0.65419099 9.41990777 2.8546409 14 5 C10.08263419 6.1700097 7.02040985 5.69584017 3 5 C3 4.34 3 3.68 3 3 C2.01 3 1.02 3 0 3 C0 2.01 0 1.02 0 0 Z " fill="#40AD65" transform="translate(304,215)"/>
<path d="M0 0 C5.62586863 1.76813014 8.77840563 5.16760844 12 10 C9 10 9 10 6.73828125 8.06640625 C5.93777344 7.24011719 5.13726562 6.41382813 4.3125 5.5625 C3.50425781 4.73878906 2.69601563 3.91507812 1.86328125 3.06640625 C0 1 0 1 0 0 Z " fill="#68C288" transform="translate(103,386)"/>
<path d="M0 0 C0.66 0.33 1.32 0.66 2 1 C-0.17220355 3.73277221 -1.85827965 5.72888915 -5.3359375 6.5546875 C-7.56274452 6.78650022 -9.76217118 6.94637012 -12 7 C-8.44008172 4.03340143 -4.34777457 1.618652 0 0 Z " fill="#093014" transform="translate(283,254)"/>
<path d="M0 0 C3.49844386 0.63389235 5.84086876 2.05177694 8.75 4.0625 C9.94882812 4.88427734 9.94882812 4.88427734 11.171875 5.72265625 C12.07679688 6.35494141 12.07679688 6.35494141 13 7 C10.34501768 8.0169313 9.30844625 8.13022151 6.640625 7.00390625 C5.85171875 6.52824219 5.0628125 6.05257812 4.25 5.5625 C3.45078125 5.08941406 2.6515625 4.61632812 1.828125 4.12890625 C1.22484375 3.75636719 0.6215625 3.38382812 0 3 C0 2.01 0 1.02 0 0 Z " fill="#7ACD98" transform="translate(352,78)"/>
<path d="M0 0 C0.66 0 1.32 0 2 0 C4.61895048 4.77573323 3.83119431 8.84434881 3 14 C0.81005752 10.71508627 0.64722661 9.16904361 0.375 5.3125 C0.30023438 4.31863281 0.22546875 3.32476562 0.1484375 2.30078125 C0.09945312 1.54152344 0.05046875 0.78226562 0 0 Z " fill="#68C58B" transform="translate(55,293)"/>
<path d="M0 0 C3.34998521 1.11666174 3.79340222 1.74694925 5.6875 4.5625 C6.34298828 5.52349609 6.34298828 5.52349609 7.01171875 6.50390625 C7.33785156 6.99761719 7.66398437 7.49132812 8 8 C3.76570244 6.68938409 -0.07407404 5.05643741 -4 3 C-2.1875 1.4375 -2.1875 1.4375 0 0 Z " fill="#072F16" transform="translate(307,211)"/>
<path d="M0 0 C-1.82748903 2.46313739 -3.22976216 3.83428618 -6.26953125 4.48828125 C-8.51479346 4.72518293 -10.74455578 4.90361349 -13 5 C-8.61576048 1.55524038 -5.69164233 -0.31620235 0 0 Z " fill="#3DAC64" transform="translate(209,209)"/>
<path d="M0 0 C-5.28 2.31 -10.56 4.62 -16 7 C-16.33 6.34 -16.66 5.68 -17 5 C-15.35 4.67 -13.7 4.34 -12 4 C-12 3.34 -12 2.68 -12 2 C-10.75579353 1.4654744 -9.50429064 0.94791389 -8.25 0.4375 C-7.55390625 0.14746094 -6.8578125 -0.14257812 -6.140625 -0.44140625 C-4 -1 -4 -1 0 0 Z " fill="#053110" transform="translate(198,213)"/>
<path d="M0 0 C-5.946072 3.03910346 -11.36906706 3.65226572 -18 4 C-15.06836714 2.44596314 -12.16634776 1.30198368 -9 0.3125 C-8.154375 0.04050781 -7.30875 -0.23148438 -6.4375 -0.51171875 C-3.8767932 -1.02468085 -2.44171002 -0.84216387 0 0 Z " fill="#83CEA1" transform="translate(204,56)"/>
<path d="M0 0 C-1.09589608 3.28768825 -1.47727309 3.64293383 -4.3125 5.3125 C-4.90675781 5.67988281 -5.50101562 6.04726562 -6.11328125 6.42578125 C-8 7 -8 7 -10.23046875 6.10546875 C-11.10638672 5.55826172 -11.10638672 5.55826172 -12 5 C-10.37750059 4.16180842 -8.75191503 3.3295884 -7.125 2.5 C-6.22007812 2.0359375 -5.31515625 1.571875 -4.3828125 1.09375 C-2 0 -2 0 0 0 Z " fill="#3DA861" transform="translate(327,248)"/>
<path d="M0 0 C0.33 0 0.66 0 1 0 C1.33 2.64 1.66 5.28 2 8 C5.47147842 8.74957157 5.47147842 8.74957157 9 9 C8.67 9.99 8.34 10.98 8 12 C5.125 12.125 5.125 12.125 2 12 C0 10 0 10 -0.1953125 7.6171875 C-0.17210937 6.71226562 -0.14890625 5.80734375 -0.125 4.875 C-0.10695313 3.96492188 -0.08890625 3.05484375 -0.0703125 2.1171875 C-0.04710937 1.41851562 -0.02390625 0.71984375 0 0 Z " fill="#022307" transform="translate(338,282)"/>
<path d="M0 0 C4.03520597 1.58962659 8.01811282 3.28232318 12 5 C12 5.66 12 6.32 12 7 C8.47180533 7.40322225 7.25723855 7.18545105 4.3125 5.0625 C3.549375 4.381875 2.78625 3.70125 2 3 C1.34 2.67 0.68 2.34 0 2 C0 1.34 0 0.68 0 0 Z " fill="#42AA66" transform="translate(291,208)"/>
<path d="M0 0 C5.31027254 1.46032495 9.46330032 3.98320986 14 7 C13.34 7.66 12.68 8.32 12 9 C9.5 7.625 9.5 7.625 7 6 C7 5.34 7 4.68 7 4 C4.69 3.34 2.38 2.68 0 2 C0 1.34 0 0.68 0 0 Z " fill="#81CE9D" transform="translate(338,70)"/>
<path d="M0 0 C-1.32 0.33 -2.64 0.66 -4 1 C-4 1.66 -4 2.32 -4 3 C-8.29 3 -12.58 3 -17 3 C-17 2.67 -17 2.34 -17 2 C-11.19233704 0.4943096 -6.0018137 -0.21824777 0 0 Z " fill="#74C993" transform="translate(221,52)"/>
<path d="M0 0 C0.33 0.66 0.66 1.32 1 2 C0.22265625 4.1640625 0.22265625 4.1640625 -0.9375 6.625 C-1.31777344 7.44226563 -1.69804687 8.25953125 -2.08984375 9.1015625 C-2.39019531 9.72804688 -2.69054687 10.35453125 -3 11 C-3.33 11 -3.66 11 -4 11 C-5.21380846 5.65924276 -5.21380846 5.65924276 -4.25 2.6875 C-3 1 -3 1 0 0 Z " fill="#6CC88F" transform="translate(433,329)"/>
<path d="M0 0 C3 1 3 1 3.984375 2.7421875 C4.23703125 3.44601562 4.4896875 4.14984375 4.75 4.875 C5.01296875 5.57367188 5.2759375 6.27234375 5.546875 6.9921875 C6 9 6 9 5 12 C2.65085508 9.65085508 2.26859643 8.04320554 1.375 4.875 C1.11460938 3.96492188 0.85421875 3.05484375 0.5859375 2.1171875 C0.39257812 1.41851562 0.19921875 0.71984375 0 0 Z " fill="#68C789" transform="translate(62,319)"/>
<path d="M0 0 C0.66 0.99 1.32 1.98 2 3 C-0.31 4.98 -2.62 6.96 -5 9 C-5.33 8.01 -5.66 7.02 -6 6 C-5.01 5.67 -4.02 5.34 -3 5 C-3 4.01 -3 3.02 -3 2 C-2.01 1.34 -1.02 0.68 0 0 Z " fill="#6EC58D" transform="translate(374,403)"/>
<path d="M0 0 C1.485 0.99 1.485 0.99 3 2 C5.05709596 2.24055468 5.05709596 2.24055468 7.1875 2.125 C8.445625 2.08375 9.70375 2.0425 11 2 C11.33 1.34 11.66 0.68 12 0 C11.625 1.9375 11.625 1.9375 11 4 C8.04335481 5.4783226 5.25770263 5.06032783 2 5 C1.34 3.35 0.68 1.7 0 0 Z " fill="#40A463" transform="translate(337,291)"/>
<path d="M0 0 C5.80205656 5.64524422 5.80205656 5.64524422 8 9 C8 9.66 8 10.32 8 11 C7.01 11.33 6.02 11.66 5 12 C5 10.68 5 9.36 5 8 C4.34 8 3.68 8 3 8 C0.4345406 5.4345406 0.45953913 3.52313332 0 0 Z " fill="#83CF9F" transform="translate(408,127)"/>
<path d="M0 0 C1.921875 0.6484375 1.921875 0.6484375 4 2 C4.828125 4.6015625 4.828125 4.6015625 5.25 7.625 C5.39953125 8.62789063 5.5490625 9.63078125 5.703125 10.6640625 C5.80109375 11.43492187 5.8990625 12.20578125 6 13 C2.91187205 8.9949489 0 5.2064354 0 0 Z " fill="#82CFA1" transform="translate(67,331)"/>
<path d="M0 0 C-1.91512272 0.50588147 -3.83216922 1.00448391 -5.75 1.5 C-7.35101563 1.91765625 -7.35101563 1.91765625 -8.984375 2.34375 C-12 3 -12 3 -16 3 C-16 2.34 -16 1.68 -16 1 C-14.0852312 0.63571223 -12.16807707 0.28394694 -10.25 -0.0625 C-9.18265625 -0.25972656 -8.1153125 -0.45695312 -7.015625 -0.66015625 C-4.25228095 -0.97156937 -2.59053383 -0.8991416 0 0 Z " fill="#8ACBA1" transform="translate(299,445)"/>
<path d="M0 0 C-1.5 2 -1.5 2 -4 4 C-6.75871627 4.35800135 -9.20097524 4.18660165 -12 4 C-8.59914501 0.59914501 -4.67235329 -1.5574511 0 0 Z " fill="#062C0F" transform="translate(220,190)"/>
<path d="M0 0 C-5.17578125 3.22265625 -5.17578125 3.22265625 -7 4 C-7.99 3.67 -8.98 3.34 -10 3 C-10 2.34 -10 1.68 -10 1 C-3.71428571 -1.42857143 -3.71428571 -1.42857143 0 0 Z " fill="#5FC087" transform="translate(362,417)"/>
<path d="M0 0 C-1.66751148 3.94139078 -4.22710649 6.7892812 -7 10 C-7.66 9.01 -8.32 8.02 -9 7 C-8.34 7 -7.68 7 -7 7 C-7 6.34 -7 5.68 -7 5 C-2.47619048 0 -2.47619048 0 0 0 Z " fill="#073213" transform="translate(310,300)"/>
<path d="M0 0 C0 0.66 0 1.32 0 2 C-0.99 2 -1.98 2 -3 2 C-3 2.66 -3 3.32 -3 4 C-3.99 4.33 -4.98 4.66 -6 5 C-6.33 5.66 -6.66 6.32 -7 7 C-8.32 6.67 -9.64 6.34 -11 6 C-3.8 0 -3.8 0 0 0 Z " fill="#42AF68" transform="translate(284,269)"/>
<path d="M0 0 C1.44096586 0.42594588 2.87768712 0.86626633 4.3125 1.3125 C5.11300781 1.55613281 5.91351563 1.79976562 6.73828125 2.05078125 C9.09964573 3.04182023 10.33879993 4.08074943 12 6 C11.01 6.495 11.01 6.495 10 7 C7.87109375 6.07421875 7.87109375 6.07421875 5.4375 4.6875 C4.63183594 4.23761719 3.82617188 3.78773438 2.99609375 3.32421875 C1 2 1 2 0 0 Z " fill="#03250C" transform="translate(314,217)"/>
<path d="M0 0 C2.10633718 1.70828921 2.93801608 2.52148416 3.29296875 5.26171875 C3.25816406 6.06222656 3.22335937 6.86273438 3.1875 7.6875 C3.16042969 8.49574219 3.13335937 9.30398437 3.10546875 10.13671875 C3.07066406 10.75160156 3.03585937 11.36648437 3 12 C2.34 11.67 1.68 11.34 1 11 C0.5859375 8.49609375 0.5859375 8.49609375 0.375 5.4375 C0.30023438 4.42558594 0.22546875 3.41367188 0.1484375 2.37109375 C0.09945313 1.58863281 0.05046875 0.80617187 0 0 Z " fill="#3EBB6D" transform="translate(436,189)"/>
<path d="M0 0 C1.65 0.33 3.3 0.66 5 1 C4.38125 1.0825 3.7625 1.165 3.125 1.25 C2.42375 1.4975 1.7225 1.745 1 2 C0.690625 2.66 0.38125 3.32 0.0625 4 C-0.288125 4.66 -0.63875 5.32 -1 6 C-3.625 6.75 -3.625 6.75 -6 7 C-4.02 4.69 -2.04 2.38 0 0 Z " fill="#66C486" transform="translate(111,105)"/>
<path d="M0 0 C4.2742558 1.5830577 6.26531794 4.50568404 9 8 C7.35 7.67 5.7 7.34 4 7 C3.67 5.68 3.34 4.36 3 3 C2.01 3 1.02 3 0 3 C0 2.01 0 1.02 0 0 Z " fill="#72C791" transform="translate(381,99)"/>
<path d="M0 0 C-1.14018002 3.42054006 -1.92458518 4.2426201 -5 6 C-7.25 5.6875 -7.25 5.6875 -9 5 C-3.375 0 -3.375 0 0 0 Z " fill="#6CC58B" transform="translate(134,88)"/>
<path d="M0 0 C0.7734375 0.7115625 0.7734375 0.7115625 1.5625 1.4375 C4.66782675 3.42809407 7.36632504 3.65060818 11 4 C10.67 4.66 10.34 5.32 10 6 C6.29706315 6.33663062 4.60465619 6.47736015 1.625 4.125 C0 2 0 2 0 0 Z " fill="#42B86E" transform="translate(202,295)"/>
<path d="M0 0 C-1.97566188 1.97566188 -3.52337094 2.89579072 -6 4.125 C-6.70125 4.47820312 -7.4025 4.83140625 -8.125 5.1953125 C-10 6 -10 6 -12 6 C-12 5.01 -12 4.02 -12 3 C-4.71428571 -0.42857143 -4.71428571 -0.42857143 0 0 Z " fill="#052B0E" transform="translate(278,271)"/>
<path d="M0 0 C4.875 1.75 4.875 1.75 6 4 C6.13415472 6.6723621 6.04318541 9.32250488 6 12 C4 8 2 4 0 0 Z " fill="#44AF67" transform="translate(345,219)"/>
<path d="M0 0 C1.46067199 0.45082469 2.91848032 0.91093537 4.375 1.375 C5.18710937 1.63023438 5.99921875 1.88546875 6.8359375 2.1484375 C9 3 9 3 11 5 C8 6 8 6 5.95703125 5.22265625 C5.24933594 4.83980469 4.54164063 4.45695312 3.8125 4.0625 C3.09707031 3.68222656 2.38164062 3.30195312 1.64453125 2.91015625 C1.10183594 2.60980469 0.55914062 2.30945313 0 2 C0 1.34 0 0.68 0 0 Z " fill="#72CA9A" transform="translate(320,62)"/>
<path d="M0 0 C0.66 0.99 1.32 1.98 2 3 C0.02 3.99 0.02 3.99 -2 5 C-2 5.66 -2 6.32 -2 7 C-3.98 7.99 -3.98 7.99 -6 9 C-5.42655063 6.13275314 -5.1385485 5.1385485 -3 3 C-2.01 3 -1.02 3 0 3 C0 2.01 0 1.02 0 0 Z " fill="#78CB99" transform="translate(383,396)"/>
<path d="M0 0 C0 0.66 0 1.32 0 2 C-3.6441774 4.4294516 -5.71241272 4.16179575 -10 4 C-10 3.34 -10 2.68 -10 2 C-8.7090864 1.66376204 -7.41723903 1.33110751 -6.125 1 C-5.40570313 0.814375 -4.68640625 0.62875 -3.9453125 0.4375 C-2 0 -2 0 0 0 Z " fill="#41AA64" transform="translate(282,319)"/>
<path d="M0 0 C-0.33 1.32 -0.66 2.64 -1 4 C-3.31 4.33 -5.62 4.66 -8 5 C-8.33 4.34 -8.66 3.68 -9 3 C-2.25 0 -2.25 0 0 0 Z " fill="#40AA66" transform="translate(298,313)"/>
<path d="M0 0 C1.65 0 3.3 0 5 0 C5 0.66 5 1.32 5 2 C7.31 2.33 9.62 2.66 12 3 C12 3.66 12 4.32 12 5 C7.61110675 4.33501617 4.0188515 2.81242323 0 1 C0 0.67 0 0.34 0 0 Z " fill="#083719" transform="translate(203,313)"/>
<path d="M0 0 C2.39763185 2.39763185 2.34280586 3.33273498 2.625 6.625 C2.69976562 7.44226563 2.77453125 8.25953125 2.8515625 9.1015625 C2.90054688 9.72804688 2.94953125 10.35453125 3 11 C2.34 11 1.68 11 1 11 C-0.17571451 7.32589215 -0.07366746 3.83070817 0 0 Z " fill="#80CF97" transform="translate(50,267)"/>
<path d="M0 0 C0 1.32 0 2.64 0 4 C-2.97 3.505 -2.97 3.505 -6 3 C-6.33 3.66 -6.66 4.32 -7 5 C-7.66 4.34 -8.32 3.68 -9 3 C-3.375 0 -3.375 0 0 0 Z " fill="#41A567" transform="translate(299,262)"/>
<path d="M0 0 C2.75 -0.25 2.75 -0.25 6 0 C8.375 2 8.375 2 10 4 C3.47692308 3.38461538 3.47692308 3.38461538 1.0625 1.4375 C0.711875 0.963125 0.36125 0.48875 0 0 Z " fill="#41B369" transform="translate(175,234)"/>
<path d="M0 0 C0.66 0.33 1.32 0.66 2 1 C-0.53645881 4.10011632 -3.15184135 5.0575938 -7 6 C-9.19140625 5.546875 -9.19140625 5.546875 -11 5 C-9.21289414 4.13633178 -7.4201535 3.28431406 -5.625 2.4375 C-4.62726563 1.96183594 -3.62953125 1.48617187 -2.6015625 0.99609375 C-1.74304688 0.66738281 -0.88453125 0.33867187 0 0 Z " fill="#3D9E5F" transform="translate(181,220)"/>
<path d="M0 0 C2.31 0.33 4.62 0.66 7 1 C7 1.66 7 2.32 7 3 C7.66 3 8.32 3 9 3 C9.33 3.99 9.66 4.98 10 6 C6.00499382 4.6302836 3.19990508 2.74277578 0 0 Z " fill="#74C692" transform="translate(141,418)"/>
<path d="M0 0 C0.66 0 1.32 0 2 0 C3.59138085 4.17737474 4.21278058 7.53160785 4 12 C2.09681116 9.14521674 1.5380901 7.58058692 0.875 4.3125 C0.70742188 3.50425781 0.53984375 2.69601562 0.3671875 1.86328125 C0.24601562 1.24839844 0.12484375 0.63351562 0 0 Z " fill="#88CCA0" transform="translate(58,307)"/>
<path d="M0 0 C1.32 0 2.64 0 4 0 C4 0.66 4 1.32 4 2 C5.32 1.67 6.64 1.34 8 1 C8.66 2.32 9.32 3.64 10 5 C8.51800098 4.55090939 7.03944764 4.09043436 5.5625 3.625 C4.73878906 3.36976563 3.91507813 3.11453125 3.06640625 2.8515625 C1 2 1 2 0 0 Z " fill="#3FA260" transform="translate(208,301)"/>
<path d="M0 0 C5 2 5 2 10 4 C9.67 4.66 9.34 5.32 9 6 C5.51669784 5.35494404 2.90567134 4.01782732 0 2 C0 1.34 0 0.68 0 0 Z " fill="#40A965" transform="translate(166,245)"/>
<path d="M0 0 C3.91211733 1.15585285 6.8745041 2.35534962 10 5 C8.02 5 6.04 5 4 5 C3.67 4.01 3.34 3.02 3 2 C2.01 2 1.02 2 0 2 C0 1.34 0 0.68 0 0 Z " fill="#072E12" transform="translate(193,244)"/>
<path d="M0 0 C0 0.99 0 1.98 0 3 C-2.97 3.66 -5.94 4.32 -9 5 C-4 0 -4 0 0 0 Z " fill="#85D2A3" transform="translate(164,69)"/>
<path d="M0 0 C4.19469571 0.59924224 8.00999834 1.57499941 12 3 C12 3.33 12 3.66 12 4 C7.45194365 4.17835515 4.1205746 3.99785435 0 2 C0 1.34 0 0.68 0 0 Z " fill="#89CC9F" transform="translate(308,58)"/>
<path d="M0 0 C-3.28463659 2.18975773 -6.20696275 2.99806563 -10 4 C-10 3.01 -10 2.02 -10 1 C-6.59437148 0.22157062 -3.49234244 -0.09978121 0 0 Z " fill="#6FC48B" transform="translate(329,434)"/>
<path d="M0 0 C6.52307692 -0.36923077 6.52307692 -0.36923077 8.9375 1.5 C9.288125 1.995 9.63875 2.49 10 3 C8 4 8 4 6.0546875 3.44140625 C5.33539063 3.15136719 4.61609375 2.86132812 3.875 2.5625 C3.15054688 2.27503906 2.42609375 1.98757813 1.6796875 1.69140625 C0.84824219 1.34916016 0.84824219 1.34916016 0 1 C0 0.67 0 0.34 0 0 Z " fill="#6DC48F" transform="translate(171,434)"/>
<path d="M0 0 C0.6875 1.6875 0.6875 1.6875 1 4 C-0.4375 6.75 -0.4375 6.75 -2 9 C-2.99 8.67 -3.98 8.34 -5 8 C-3.38731308 5.28775382 -1.75098126 2.62647188 0 0 Z " fill="#3EA161" transform="translate(312,296)"/>
<path d="M0 0 C4.95 1.98 4.95 1.98 10 4 C10 4.33 10 4.66 10 5 C5.75776898 5.3636198 3.41831915 4.5393228 0 2 C0 1.34 0 0.68 0 0 Z " fill="#073312" transform="translate(214,254)"/>
<path d="M0 0 C1.98 1.65 3.96 3.3 6 5 C5.67 5.66 5.34 6.32 5 7 C2.5 5.75 2.5 5.75 0 4 C0 2.68 0 1.36 0 0 Z " fill="#75C894" transform="translate(395,112)"/>
<path d="M0 0 C0.66 0 1.32 0 2 0 C2 0.99 2 1.98 2 3 C2.99 3.33 3.98 3.66 5 4 C4.67 5.32 4.34 6.64 4 8 C0 3.375 0 3.375 0 0 Z " fill="#87CEA2" transform="translate(78,352)"/>
<path d="M0 0 C-1.25 1.5625 -1.25 1.5625 -3 3 C-5.97397616 2.72963853 -6.85446026 2.14553974 -9 0 C-5.67465243 -1.10844919 -3.37817425 -0.84454356 0 0 Z " fill="#0D2C16" transform="translate(285,307)"/>
<path d="M0 0 C0.66 0.33 1.32 0.66 2 1 C0 4 0 4 -2.1640625 4.51171875 C-2.97617187 4.56972656 -3.78828125 4.62773437 -4.625 4.6875 C-5.85089844 4.78611328 -5.85089844 4.78611328 -7.1015625 4.88671875 C-7.72804688 4.92410156 -8.35453125 4.96148437 -9 5 C-6.06626269 3.04417512 -3.21783702 1.43775696 0 0 Z " fill="#093717" transform="translate(291,301)"/>
<path d="M0 0 C-2.97 1.65 -5.94 3.3 -9 5 C-8.67 3.68 -8.34 2.36 -8 1 C-4.70594381 -0.82039948 -3.63772813 -1.21257604 0 0 Z " fill="#419E62" transform="translate(296,299)"/>
<path d="M0 0 C0.33 0 0.66 0 1 0 C0.67 2.31 0.34 4.62 0 7 C-1.65 6.67 -3.3 6.34 -5 6 C-3.35830472 3.97945196 -1.69088222 1.97956942 0 0 Z " fill="#092F14" transform="translate(298,295)"/>
<path d="M0 0 C0 0.66 0 1.32 0 2 C-3.41831915 4.5393228 -5.75776898 5.3636198 -10 5 C-3.63636364 0 -3.63636364 0 0 0 Z " fill="#083313" transform="translate(304,245)"/>
<path d="M0 0 C1.98 0 3.96 0 6 0 C6 0.99 6 1.98 6 3 C7.32 3.33 8.64 3.66 10 4 C9.01 4.495 9.01 4.495 8 5 C6.0546875 4.22265625 6.0546875 4.22265625 3.875 3.0625 C3.15054688 2.68222656 2.42609375 2.30195313 1.6796875 1.91015625 C1.12539062 1.60980469 0.57109375 1.30945313 0 1 C0 0.67 0 0.34 0 0 Z " fill="#063215" transform="translate(166,244)"/>
<path d="M0 0 C0.66 0.33 1.32 0.66 2 1 C0.3125 3.0625 0.3125 3.0625 -2 5 C-4.75 4.75 -4.75 4.75 -7 4 C-4.66603411 2.44402274 -2.57343171 1.07918104 0 0 Z " fill="#3FAE66" transform="translate(194,214)"/>
<path d="M0 0 C2.64 0 5.28 0 8 0 C8 0.66 8 1.32 8 2 C5.69 2.33 3.38 2.66 1 3 C0.67 2.01 0.34 1.02 0 0 Z " fill="#47B96D" transform="translate(267,51)"/>
<path d="M0 0 C4.95 0.99 4.95 0.99 10 2 C10 2.33 10 2.66 10 3 C7.03 3 4.06 3 1 3 C0.67 2.01 0.34 1.02 0 0 Z " fill="#389759" transform="translate(214,318)"/>
<path d="M0 0 C2.9375 0.8125 2.9375 0.8125 6 2 C6.33 2.99 6.66 3.98 7 5 C1.25 3.25 1.25 3.25 -1 1 C-0.67 0.67 -0.34 0.34 0 0 Z " fill="#052D13" transform="translate(202,260)"/>
<path d="M0 0 C0 0.66 0 1.32 0 2 C-5.75 5 -5.75 5 -8 5 C-8 4.34 -8 3.68 -8 3 C-2.25 0 -2.25 0 0 0 Z " fill="#012309" transform="translate(206,207)"/>
<path d="M0 0 C1.98 0 3.96 0 6 0 C3.06171403 2.50298434 0.82097239 3.46930939 -3 4 C-3 3.34 -3 2.68 -3 2 C-2.01 2 -1.02 2 0 2 C0 1.34 0 0.68 0 0 Z " fill="#3EA664" transform="translate(211,189)"/>
<path d="M0 0 C2.64 0.99 5.28 1.98 8 3 C4.68756695 3.82810826 2.34023421 4.09278428 -1 4 C-0.67 2.68 -0.34 1.36 0 0 Z " fill="#083216" transform="translate(258,178)"/>
<path d="M0 0 C0 0.99 0 1.98 0 3 C-2.64 3.33 -5.28 3.66 -8 4 C-8 3.34 -8 2.68 -8 2 C-2.25 0 -2.25 0 0 0 Z " fill="#41BD6E" transform="translate(172,67)"/>
<path d="" fill="#FFFFFF" transform="translate(0,0)"/>
<path d="" fill="#FFFFFF" transform="translate(0,0)"/>
<path d="" fill="#FFFFFF" transform="translate(0,0)"/>
<path d="" fill="#FFFFFF" transform="translate(0,0)"/>
<path d="" fill="#FFFFFF" transform="translate(0,0)"/>
<path d="" fill="#FFFFFF" transform="translate(0,0)"/>
<path d="" fill="#FFFFFF" transform="translate(0,0)"/>
<path d="" fill="#FFFFFF" transform="translate(0,0)"/>
<path d="" fill="#FFFFFF" transform="translate(0,0)"/>
<path d="" fill="#FFFFFF" transform="translate(0,0)"/>
<path d="" fill="#FFFFFF" transform="translate(0,0)"/>
<path d="" fill="#FFFFFF" transform="translate(0,0)"/>
<path d="" fill="#FFFFFF" transform="translate(0,0)"/>
<path d="" fill="#FFFFFF" transform="translate(0,0)"/>
<path d="" fill="#FFFFFF" transform="translate(0,0)"/>
<path d="" fill="#FFFFFF" transform="translate(0,0)"/>
<path d="" fill="#FFFFFF" transform="translate(0,0)"/>
<path d="" fill="#FFFFFF" transform="translate(0,0)"/>
<path d="" fill="#FFFFFF" transform="translate(0,0)"/>
<path d="" fill="#FFFFFF" transform="translate(0,0)"/>
<path d="" fill="#FFFFFF" transform="translate(0,0)"/>
<path d="" fill="#FFFFFF" transform="translate(0,0)"/>
<path d="" fill="#FFFFFF" transform="translate(0,0)"/>
<path d="" fill="#FFFFFF" transform="translate(0,0)"/>
<path d="" fill="#FFFFFF" transform="translate(0,0)"/>
<path d="" fill="#FFFFFF" transform="translate(0,0)"/>
<path d="" fill="#FFFFFF" transform="translate(0,0)"/>
<path d="" fill="#FFFFFF" transform="translate(0,0)"/>
<path d="" fill="#FFFFFF" transform="translate(0,0)"/>
<path d="" fill="#FFFFFF" transform="translate(0,0)"/>
<path d="" fill="#FFFFFF" transform="translate(0,0)"/>
<path d="" fill="#FFFFFF" transform="translate(0,0)"/>
<path d="" fill="#FFFFFF" transform="translate(0,0)"/>
<path d="" fill="#FFFFFF" transform="translate(0,0)"/>
<path d="" fill="#FFFFFF" transform="translate(0,0)"/>
<path d="" fill="#FFFFFF" transform="translate(0,0)"/>
<path d="" fill="#FFFFFF" transform="translate(0,0)"/>
<path d="" fill="#FFFFFF" transform="translate(0,0)"/>
<path d="" fill="#FFFFFF" transform="translate(0,0)"/>
<path d="" fill="#FFFFFF" transform="translate(0,0)"/>
<path d="" fill="#FFFFFF" transform="translate(0,0)"/>
</svg>
